<svg width="23" height="19" viewBox="0 0 23 19" fill="none" xmlns="http://www.w3.org/2000/svg">
<g opacity="0.35">
<path fill-rule="evenodd" clip-rule="evenodd" d="M0.71875 10.2188C0.909374 10.2188 1.09219 10.2945 1.22698 10.4293C1.36177 10.5641 1.4375 10.7469 1.4375 10.9375V15.9688C1.4375 16.35 1.58895 16.7156 1.85853 16.9852C2.12812 17.2548 2.49375 17.4062 2.875 17.4062H20.125C20.5062 17.4062 20.8719 17.2548 21.1415 16.9852C21.411 16.7156 21.5625 16.35 21.5625 15.9688V10.9375C21.5625 10.7469 21.6382 10.5641 21.773 10.4293C21.9078 10.2945 22.0906 10.2188 22.2812 10.2188C22.4719 10.2188 22.6547 10.2945 22.7895 10.4293C22.9243 10.5641 23 10.7469 23 10.9375V15.9688C23 16.7312 22.6971 17.4625 22.1579 18.0017C21.6188 18.5408 20.8875 18.8438 20.125 18.8438H2.875C2.1125 18.8438 1.38124 18.5408 0.842068 18.0017C0.302901 17.4625 0 16.7312 0 15.9688V10.9375C0 10.7469 0.0757252 10.5641 0.210517 10.4293C0.345309 10.2945 0.528126 10.2188 0.71875 10.2188Z" fill="#324DA1"/>
<path fill-rule="evenodd" clip-rule="evenodd" d="M7.187 9.50019C7.32179 9.36544 7.50457 9.28975 7.69516 9.28975C7.88575 9.28975 8.06853 9.36544 8.20332 9.50019L11.4995 12.7964L14.7957 9.50019C14.862 9.43154 14.9413 9.37678 15.029 9.33911C15.1167 9.30145 15.211 9.28162 15.3064 9.28079C15.4019 9.27996 15.4965 9.29814 15.5848 9.33428C15.6732 9.37042 15.7534 9.42379 15.8209 9.49128C15.8884 9.55876 15.9418 9.63901 15.9779 9.72735C16.014 9.81568 16.0322 9.91032 16.0314 10.0058C16.0306 10.1012 16.0107 10.1955 15.9731 10.2832C15.9354 10.3709 15.8807 10.4502 15.812 10.5165L12.0084 14.3216C11.9416 14.3885 11.8623 14.4416 11.775 14.4778C11.6877 14.5141 11.594 14.5327 11.4995 14.5327C11.405 14.5327 11.3114 14.5141 11.224 14.4778C11.1367 14.4416 11.0574 14.3885 10.9906 14.3216L7.187 10.5165C7.05226 10.3817 6.97656 10.1989 6.97656 10.0083C6.97656 9.81776 7.05226 9.63497 7.187 9.50019Z" fill="#324DA1"/>
<path fill-rule="evenodd" clip-rule="evenodd" d="M11.5 0.15625C11.6906 0.15625 11.8734 0.231975 12.0082 0.366767C12.143 0.501559 12.2188 0.684376 12.2188 0.875V12.375C12.2188 12.5656 12.143 12.7484 12.0082 12.8832C11.8734 13.018 11.6906 13.0938 11.5 13.0938C11.3094 13.0938 11.1266 13.018 10.9918 12.8832C10.857 12.7484 10.7812 12.5656 10.7812 12.375V0.875C10.7812 0.684376 10.857 0.501559 10.9918 0.366767C11.1266 0.231975 11.3094 0.15625 11.5 0.15625Z" fill="#324DA1"/>
</g>
</svg>
