<svg width="517" height="405" viewBox="0 0 517 405" fill="none" xmlns="http://www.w3.org/2000/svg">
<path d="M115.909 171.934C140.275 171.934 160.028 152.181 160.028 127.815C160.028 103.449 140.275 83.6965 115.909 83.6965C91.5433 83.6965 71.7908 103.449 71.7908 127.815C71.7908 152.181 91.5433 171.934 115.909 171.934Z" fill="#FB7449"/>
<path d="M517 117V223.812C517 246.28 517 267.766 517 297.235C517 314.716 517 382.145 517 404C492.402 404 376.837 404 351.775 404C335.067 404 313.464 404 292.587 404H0V288.083C0 226.142 30.59 171.883 76.4043 141.86C84.299 136.681 92.6014 132.259 101.216 128.645C106.285 126.514 111.455 124.669 116.703 123.119C116.806 123.082 116.913 123.051 117.015 123.025C118.566 122.568 120.127 122.138 121.697 121.734C121.785 121.707 121.867 121.686 121.955 121.665C131.633 119.184 141.505 117.685 151.443 117.189C152.618 117.131 153.794 117.084 154.979 117.058C155.403 117.042 155.832 117.031 156.266 117.031C157.163 117.01 158.065 117 158.972 117H517Z" fill="#324DA1"/>
<path d="M226.476 329.101C101.397 329.101 6.57471 362.627 6.57471 404.488H453.423C452.998 362.829 351.555 329.101 226.476 329.101Z" fill="#E7ECFB"/>
<g opacity="0.1">
<path opacity="0.1" d="M184.448 386.218C207.66 386.218 226.476 380.991 226.476 374.543C226.476 368.095 207.66 362.869 184.448 362.869C161.237 362.869 142.42 368.095 142.42 374.543C142.42 380.991 161.237 386.218 184.448 386.218Z" fill="black"/>
</g>
<g opacity="0.1">
<path opacity="0.1" d="M275.334 365.203C298.545 365.203 317.362 359.976 317.362 353.529C317.362 347.081 298.545 341.854 275.334 341.854C252.122 341.854 233.306 347.081 233.306 353.529C233.306 359.976 252.122 365.203 275.334 365.203Z" fill="black"/>
</g>
<path opacity="0.1" d="M184.448 385.05C205.339 385.05 222.274 380.346 222.274 374.543C222.274 368.74 205.339 364.036 184.448 364.036C163.558 364.036 146.623 368.74 146.623 374.543C146.623 380.346 163.558 385.05 184.448 385.05Z" fill="#97A3C5"/>
<path opacity="0.1" d="M275.334 364.036C296.224 364.036 313.159 359.332 313.159 353.529C313.159 347.726 296.224 343.022 275.334 343.022C254.444 343.022 237.509 347.726 237.509 353.529C237.509 359.332 254.444 364.036 275.334 364.036Z" fill="#97A3C5"/>
<path d="M72.0229 167.029C74.0539 167.029 75.7004 165.383 75.7004 163.352C75.7004 161.321 74.0539 159.674 72.0229 159.674C69.9919 159.674 68.3455 161.321 68.3455 163.352C68.3455 165.383 69.9919 167.029 72.0229 167.029Z" fill="#F2F2F2"/>
<path d="M388.284 310.976C390.315 310.976 391.962 309.329 391.962 307.298C391.962 305.267 390.315 303.621 388.284 303.621C386.253 303.621 384.607 305.267 384.607 307.298C384.607 309.329 386.253 310.976 388.284 310.976Z" fill="#F2F2F2"/>
<path d="M484.677 343.355C486.708 343.355 488.355 341.708 488.355 339.677C488.355 337.646 486.708 336 484.677 336C482.646 336 481 337.646 481 339.677C481 341.708 482.646 343.355 484.677 343.355Z" fill="#F2F2F2"/>
<path d="M214.919 192.771C216.95 192.771 218.596 191.125 218.596 189.094C218.596 187.063 216.95 185.417 214.919 185.417C212.888 185.417 211.241 187.063 211.241 189.094C211.241 191.125 212.888 192.771 214.919 192.771Z" fill="#F2F2F2"/>
<path d="M497.677 225.355C499.708 225.355 501.355 223.708 501.355 221.677C501.355 219.646 499.708 218 497.677 218C495.646 218 494 219.646 494 221.677C494 223.708 495.646 225.355 497.677 225.355Z" fill="#F2F2F2"/>
<path d="M397.215 169.131C398.376 169.131 399.317 168.19 399.317 167.029C399.317 165.869 398.376 164.928 397.215 164.928C396.055 164.928 395.114 165.869 395.114 167.029C395.114 168.19 396.055 169.131 397.215 169.131Z" fill="#FB7449"/>
<path d="M80.4283 274.201C81.5889 274.201 82.5297 273.26 82.5297 272.099C82.5297 270.939 81.5889 269.998 80.4283 269.998C79.2677 269.998 78.3269 270.939 78.3269 272.099C78.3269 273.26 79.2677 274.201 80.4283 274.201Z" fill="#FB7449"/>
<path d="M48.9078 316.398H47.9506V315.441H47.7636V316.398H46.8064V316.585H47.7636V317.543H47.9506V316.585H48.9078V316.398Z" fill="#F2F2F2"/>
<path d="M356.238 238.646H355.281V237.689H355.094V238.646H354.136V238.833H355.094V239.791H355.281V238.833H356.238V238.646Z" fill="#F2F2F2"/>
<path d="M435.566 222.886H434.609V221.928H434.422V222.886H433.465V223.073H434.422V224.03H434.609V223.073H435.566V222.886Z" fill="#F2F2F2"/>
<path d="M264.827 264.914H263.87V263.957H263.683V264.914H262.726V265.101H263.683V266.058H263.87V265.101H264.827V264.914Z" fill="#F2F2F2"/>
<path d="M412.451 270.167H411.493V269.21H411.306V270.167H410.349V270.354H411.306V271.312H411.493V270.354H412.451V270.167Z" fill="#F2F2F2"/>
<path d="M234.357 292.757H233.399V291.8H233.212V292.757H232.255V292.944H233.212V293.901H233.399V292.944H234.357V292.757Z" fill="#F2F2F2"/>
<path d="M301.601 293.808H300.644V292.851H300.457V293.808H299.5V293.995H300.457V294.952H300.644V293.995H301.601V293.808Z" fill="#F2F2F2"/>
<path d="M49.9581 204.498H49.0009V203.541H48.8139V204.498H47.8567V204.685H48.8139V205.643H49.0009V204.685H49.9581V204.498Z" fill="#F2F2F2"/>
<g opacity="0.1">
<path opacity="0.1" d="M360.833 166.016L358.961 176.74C344.89 140.214 322.507 162.651 322.121 163.044C324.434 159.933 327.498 157.459 331.026 155.852C334.554 154.245 338.431 153.558 342.297 153.854C346.162 154.151 349.889 155.422 353.131 157.549C356.372 159.675 359.022 162.588 360.833 166.016Z" fill="black"/>
</g>
<path d="M252.219 196.093H251.261V195.136H251.074V196.093H250.117V196.28H251.074V197.237H251.261V196.28H252.219V196.093Z" fill="#F2F2F2"/>
<path d="M362.696 132.193H361.186V162.697H362.696V132.193Z" fill="#E6E6E6"/>
<path d="M326.907 213.285L313.014 245.299L315.732 249.829L314.826 251.338L321.169 254.661V252.849L323.585 252.245L333.853 233.52L326.907 213.285Z" fill="#E6E6E6"/>
<path d="M316.034 251.037C316.034 251.037 305.766 267.044 317.242 269.46C328.719 271.876 319.356 252.547 319.356 252.547L316.034 251.037Z" fill="#E6E6E6"/>
<path d="M330.833 243.788L327.209 255.567L325.699 270.667L322.98 276.104L326.001 300.567L330.833 305.399L332.947 329.561V340.433L338.685 350.4L331.296 360.888C330.947 361.381 330.739 361.959 330.692 362.561C330.646 363.163 330.763 363.766 331.032 364.306C331.301 364.847 331.711 365.304 332.219 365.63C332.727 365.956 333.314 366.139 333.918 366.158C335.549 366.201 337.7 365.74 340.497 364.293C349.256 359.762 348.954 355.534 348.954 355.534C348.954 355.534 354.39 355.534 354.692 351.306C354.994 347.078 351.37 316.876 351.37 316.876L348.048 303.889V268.553H349.256L349.86 298.755L352.578 309.93L352.88 314.762L356.806 363.084C356.806 363.084 374.323 367.917 375.229 363.991C376.135 360.064 368.585 357.648 368.585 357.648L373.115 348.89V331.977L371.605 328.353L368.887 303.889L373.417 299.057L375.833 296.037V271.875L372.813 262.513L371.907 254.66L367.075 242.58C367.075 242.58 345.028 235.331 330.833 243.788Z" fill="white"/>
<path d="M370.096 175.533C370.096 179.165 369.233 182.746 367.58 185.981C365.926 189.216 363.529 192.011 360.584 194.139C357.639 196.266 354.232 197.664 350.642 198.218C347.051 198.772 343.381 198.466 339.932 197.325C336.483 196.184 333.354 194.24 330.803 191.654C328.252 189.068 326.35 185.913 325.256 182.45C324.161 178.986 323.904 175.311 324.506 171.729C325.109 168.146 326.552 164.758 328.719 161.842L328.725 161.836C331.604 157.963 335.631 155.097 340.232 153.643C344.834 152.19 349.777 152.224 354.358 153.741C358.939 155.257 362.925 158.179 365.751 162.092C368.576 166.004 370.096 170.707 370.096 175.533Z" fill="#4975FB"/>
<path d="M367.438 164.808L365.565 175.532C351.494 139.006 329.112 161.443 328.725 161.836C331.038 158.725 334.102 156.251 337.63 154.644C341.158 153.037 345.035 152.35 348.901 152.646C352.766 152.943 356.493 154.214 359.735 156.341C362.976 158.467 365.626 161.38 367.438 164.808Z" fill="white"/>
<path d="M364.291 160.28L367.437 171.202C367.437 171.202 360.906 190.778 330.618 191.461L329.625 194.257L326.303 195.163L324.793 201.506L329.021 241.674C329.021 241.674 327.209 245.6 330.229 245.298C330.229 245.298 350.162 238.654 367.377 244.694C367.377 244.694 371.001 246.204 370.095 242.882C370.095 242.882 382.176 235.331 381.27 227.479C380.364 219.627 382.176 183.082 382.176 183.082C382.176 183.082 383.988 172.512 378.552 170.096C378.552 170.096 370.567 158.92 364.291 160.28Z" fill="white"/>
<path d="M357.67 236.595C357.67 236.595 338.747 238.495 343.985 248.989C349.223 259.482 358.551 240.136 358.551 240.136L357.67 236.595Z" fill="#E6E6E6"/>
<path d="M367.377 189.727C367.377 189.727 364.055 193.653 365.263 199.995C366.471 206.338 371.001 220.532 371.001 220.532L354.994 235.331L359.827 241.976L381.572 230.801L386.404 227.781C385.203 215.565 382.213 203.592 377.53 192.246L376.74 190.331C376.74 190.331 371.001 187.915 367.377 189.727Z" fill="#E6E6E6"/>
<path d="M365.867 179.005C368.953 179.005 371.454 176.503 371.454 173.417C371.454 170.332 368.953 167.83 365.867 167.83C362.781 167.83 360.28 170.332 360.28 173.417C360.28 176.503 362.781 179.005 365.867 179.005Z" fill="#E6E6E6"/>
<path d="M361.941 136.119C364.193 136.119 366.018 134.293 366.018 132.042C366.018 129.79 364.193 127.964 361.941 127.964C359.689 127.964 357.864 129.79 357.864 132.042C357.864 134.293 359.689 136.119 361.941 136.119Z" fill="#E6E6E6"/>
<path d="M344.376 166.673H343.419V165.716H343.232V166.673H342.275V166.86H343.232V167.817H343.419V166.86H344.376V166.673Z" fill="#F2F2F2"/>
<path d="M334.92 175.605H333.963V174.647H333.776V175.605H332.818V175.792H333.776V176.749H333.963V175.792H334.92V175.605Z" fill="#F2F2F2"/>
<path d="M291.62 153.371C292.78 153.371 293.721 152.43 293.721 151.269C293.721 150.109 292.78 149.168 291.62 149.168C290.459 149.168 289.518 150.109 289.518 151.269C289.518 152.43 290.459 153.371 291.62 153.371Z" fill="#F2F2F2"/>
<g opacity="0.1">
<path opacity="0.1" d="M130.911 46.0952V301.678H125.254V61.2922C127.146 55.8746 129.057 50.7901 130.911 46.0952Z" fill="black"/>
</g>
<path d="M195.088 167.155C195.088 325.165 175.219 325.165 150.716 325.165C138.048 325.165 126.62 325.165 118.538 303.339C116.215 297.066 114.162 288.977 112.441 278.565C108.566 255.16 106.344 219.988 106.344 167.155C106.344 146.839 108.749 126.923 112.441 108.321C114.216 99.3651 116.289 90.7211 118.538 82.4768C121.289 72.3831 124.303 62.8923 127.345 54.2077C129.384 48.3683 131.443 42.8879 133.442 37.8275C142.675 14.4698 150.716 0 150.716 0C150.716 0 195.088 79.8891 195.088 167.155Z" fill="white"/>
<path d="M149.361 133.453C162.829 133.453 173.748 122.534 173.748 109.066C173.748 95.5968 162.829 84.6782 149.361 84.6782C135.892 84.6782 124.973 95.5968 124.973 109.066C124.973 122.534 135.892 133.453 149.361 133.453Z" fill="#3F3D56"/>
<path d="M202.878 310.261C197.455 296.914 190.493 294.611 185.942 294.811V292.648H114.812V294.811C110.261 294.611 103.299 296.914 97.8763 310.261C89.0698 331.939 103.296 369.198 103.296 369.198C103.296 369.198 95.6931 317.234 120.939 316.892C123.126 319.744 125.809 322.178 128.859 324.078V338.054H169.63V325.35C173.615 323.329 177.096 320.438 179.815 316.892C205.061 317.234 197.458 369.198 197.458 369.198C197.458 369.198 211.684 331.939 202.878 310.261Z" fill="#4975FB"/>
<path d="M149.361 128.034C159.836 128.034 168.329 119.541 168.329 109.066C168.329 98.5899 159.836 90.0977 149.361 90.0977C138.885 90.0977 130.393 98.5899 130.393 109.066C130.393 119.541 138.885 128.034 149.361 128.034Z" fill="#4975FB"/>
<path d="M474.457 117H473.406C473.482 128.379 478.052 139.266 486.12 147.29C494.188 155.314 505.621 158.987 517 159V158C505.899 157.988 494.734 154.376 486.862 146.548C478.991 138.721 474.532 128.1 474.457 117Z" fill="#4975FB"/>
<path d="M455.019 117H453.969C454.049 133.533 460.668 149.362 472.38 161.03C484.093 172.699 500.467 178.983 517 179V178C500.746 177.982 484.64 171.758 473.124 160.286C461.609 148.815 455.1 133.254 455.019 117Z" fill="#4975FB"/>
<path d="M435.051 117H434C434.131 162.369 471.599 199 517 199V198C472.177 198 435.182 161.791 435.051 117Z" fill="#4975FB"/>
</svg>
