<svg width="175" height="46" viewBox="0 0 175 46" fill="none" xmlns="http://www.w3.org/2000/svg">
<path d="M20.6334 6.75888H7.47V13.4489H19.5835V19.9299H7.47V32.5155H0V0.0688477H20.6334V6.75888ZM52.0478 20.2644C52.0478 24.1948 50.796 27.3307 48.333 29.7559C45.8699 32.181 42.5992 33.3936 38.521 33.3936C34.4428 33.3936 31.2125 32.181 28.7898 29.7977C26.3671 27.4143 25.1557 24.2366 25.1557 20.3062V0.11066H32.6661V19.679C32.6661 21.6024 33.1507 23.1913 34.1198 24.4875C35.0888 25.7418 36.5828 26.369 38.5614 26.369C40.5803 26.369 42.0339 25.7418 43.003 24.4875C43.9721 23.2331 44.4566 21.6024 44.4566 19.679V0.11066H52.0074V20.3062L52.0478 20.2644ZM86.6521 32.5155H78.0515L65.4534 11.3165H65.3323L65.4938 32.5155H58.1449V0.0688477H66.7859L79.3436 21.2261H79.4647L79.3032 0.0688477H86.6521V32.5155ZM122.387 16.2085C122.387 18.9682 121.902 21.3933 120.893 23.5258C119.883 25.6582 118.551 27.3725 116.855 28.6687C115.159 29.9649 113.302 30.9266 111.243 31.5538C109.224 32.181 107.084 32.5155 104.822 32.5155H93.153V0.0688477H104.499C106.357 0.0688477 108.133 0.236098 109.789 0.5706C111.444 0.905101 113.06 1.44867 114.634 2.24311C116.209 3.03755 117.542 4.04105 118.672 5.21181C119.803 6.38256 120.731 7.92963 121.377 9.8112C122.064 11.6928 122.387 13.8252 122.387 16.2085ZM114.513 16.2085C114.513 14.4524 114.23 12.9472 113.665 11.6928C113.1 10.4384 112.333 9.43489 111.323 8.72407C110.354 8.01326 109.264 7.51151 108.093 7.21882C106.922 6.92613 105.67 6.75888 104.257 6.75888H100.502V25.7418H104.096C107.124 25.7418 109.627 24.9892 111.566 23.4839C113.504 21.9787 114.473 19.5536 114.473 16.2085H114.513ZM174.96 32.5155H166.561L164.138 26.16H152.025L149.723 32.5155H141.486L154.649 0.0688477H161.998L175 32.5155H174.96ZM162.039 19.8462L158.162 8.72407L154.165 19.8462H162.039Z" fill="white"/>
<path fill-rule="evenodd" clip-rule="evenodd" d="M135.752 0.0418118L135.873 29.3101V29.3519C135.752 40.0557 128.726 45.115 118.753 45.115L0 45.2822V37.4634L118.753 37.2962C124.567 37.2962 128.201 35.5401 128.323 29.2683L128.201 0.0418118L135.752 0V0.0418118Z" fill="#79FF8F"/>
</svg>
