<svg width="14" height="18" viewBox="0 0 14 18" fill="none" xmlns="http://www.w3.org/2000/svg">
<path d="M6.42928e-05 6.4568C6.42928e-05 5.67858 0.137556 4.94338 0.408497 4.25719C0.66736 3.5907 1.05196 2.979 1.5418 2.45469C2.03064 1.93725 2.59004 1.48982 3.20383 1.12532C3.83358 0.748364 4.51537 0.46398 5.2278 0.281082C5.94884 0.0937513 6.69129 -0.000721577 7.43677 4.14945e-06C8.58827 4.14945e-06 9.6599 0.241071 10.6537 0.721204C11.6345 1.19258 12.4693 1.91598 13.0709 2.81579C13.6917 3.73104 14 4.76633 14 5.92065C14 6.61284 13.9313 7.29003 13.7907 7.95221C13.6527 8.61403 13.4334 9.25665 13.1376 9.86574C12.8557 10.4554 12.4871 11.0004 12.0438 11.4832C11.5982 11.9583 11.0586 12.3376 10.4586 12.5975C9.8071 12.88 9.10237 13.0222 8.39113 13.0146C7.89676 13.0146 7.40341 12.8996 6.91612 12.6685C6.42883 12.4385 6.07904 12.1224 5.86876 11.7173C5.79495 11.9983 5.69386 12.4044 5.5594 12.9356C5.42999 13.4657 5.34305 13.8078 5.30463 13.9629C5.26419 14.1169 5.18938 14.374 5.0802 14.7301C5.00615 14.9935 4.91116 15.2507 4.79611 15.4993L4.44834 16.1735C4.29794 16.4628 4.12981 16.7427 3.94488 17.0117C3.76189 17.2738 3.53543 17.5869 3.2655 17.947L3.11487 18L3.01478 17.892C2.90661 16.7587 2.851 16.0805 2.851 15.8564C2.851 15.1932 2.93087 14.449 3.08858 13.6228C3.24326 12.7976 3.48792 11.7603 3.81648 10.5129C4.14505 9.26658 4.33309 8.53337 4.38364 8.31631C4.15213 7.84918 4.03485 7.23901 4.03485 6.48881C4.03485 5.88964 4.2239 5.32848 4.60302 4.80034C4.98314 4.27419 5.46336 4.01112 6.04568 4.01112C6.49151 4.01112 6.83727 4.15716 7.08495 4.45024C7.33365 4.74232 7.45497 5.11042 7.45497 5.55955C7.45497 6.03568 7.29524 6.72487 6.97375 7.62612C6.65226 8.52837 6.49252 9.20156 6.49252 9.64868C6.49252 10.1018 6.6563 10.4809 6.98386 10.778C7.30711 11.0752 7.7346 11.2363 8.17579 11.2271C8.57614 11.2271 8.94716 11.1371 9.29191 10.956C9.63126 10.7803 9.925 10.5294 10.1502 10.2228C10.6408 9.55695 10.9905 8.79997 11.1784 7.99722C11.2754 7.57511 11.3502 7.174 11.3967 6.79689C11.4463 6.41779 11.4675 6.05969 11.4675 5.71959C11.4675 4.47225 11.0672 3.49998 10.2715 2.80378C9.47186 2.10759 8.43056 1.76149 7.14966 1.76149C5.69285 1.76149 4.47463 2.22762 3.49904 3.16288C2.52244 4.09514 2.03111 5.28047 2.03111 6.71787C2.03111 7.03496 2.07963 7.34104 2.17163 7.63712C2.26161 7.93221 2.35967 8.16727 2.46582 8.34132C2.57097 8.51237 2.67004 8.67941 2.76002 8.83346C2.851 8.9875 2.89852 9.09753 2.89852 9.16355C2.89852 9.3656 2.84494 9.62868 2.73676 9.95377C2.62455 10.2789 2.49211 10.4409 2.33238 10.4409C2.31721 10.4409 2.25453 10.4299 2.14535 10.4069C1.76721 10.2952 1.42571 10.0864 1.1556 9.80172C0.868931 9.5067 0.642693 9.15955 0.489374 8.77944C0.336493 8.40069 0.217418 8.00942 0.133513 7.61012C0.0428604 7.23229 -0.00193857 6.84512 6.42928e-05 6.4568Z" fill="white"/>
</svg>
