<svg width="120" height="120" viewBox="0 0 120 120" fill="none" xmlns="http://www.w3.org/2000/svg">
<path d="M112 90H8C3.582 90 0 86.418 0 82V8C0 3.582 3.582 0 8 0H112C116.418 0 120 3.582 120 8V82C120 86.418 116.418 90 112 90Z" fill="#C1C8D1"/>
<path d="M8 66V10C8 8.896 8.896 8 10 8H110C111.104 8 112 8.896 112 10V66" fill="#C7E2FC"/>
<path d="M69.408 25C69.408 19.06 68.442 13.35 66.682 8H10C8.896 8 8 8.896 8 10V66H50.73C62.17 56.03 69.408 41.366 69.408 25Z" fill="#EBF7FE"/>
<path d="M90 120H30V116C30 111.582 33.582 108 38 108H82C86.418 108 90 111.582 90 116V120Z" fill="#CBD4EB"/>
<path d="M120 65.9999V81.9999C120 86.4179 116.418 89.9999 112 89.9999H8C3.582 89.9999 0 86.4179 0 81.9999V65.9999H120Z" fill="#CBD4EB"/>
<path d="M60 82C62.2091 82 64 80.2091 64 78C64 75.7909 62.2091 74 60 74C57.7909 74 56 75.7909 56 78C56 80.2091 57.7909 82 60 82Z" fill="#243242"/>
<path d="M47.8577 108.004C49.2197 105.65 49.9997 102.916 49.9997 100C49.9997 96.134 48.6277 92.588 46.3457 89.822H73.7817C71.5837 92.562 69.9997 96.216 69.9997 100C69.9997 102.916 70.7797 105.648 72.1417 108.002L47.8577 108.004Z" fill="#5B83FB"/>
<path d="M28.9404 41.8807C29.5732 43.1463 29.3251 44.6749 28.3246 45.6754C27.0407 46.9593 27.0407 49.0407 28.3246 50.3246L29.6754 51.6754C30.9593 52.9593 33.0407 52.9593 34.3246 51.6754C35.3251 50.6749 36.8537 50.4268 38.1193 51.0596L38.6334 51.3167C39.471 51.7355 40 52.5915 40 53.5279C40 54.8932 41.1068 56 42.4721 56H45.5279C46.8932 56 48 54.8932 48 53.5279C48 52.5915 48.529 51.7355 49.3666 51.3167L49.8807 51.0596C51.1463 50.4268 52.6749 50.6749 53.6754 51.6754C54.9593 52.9593 57.0407 52.9593 58.3246 51.6754L59.6754 50.3246C60.9593 49.0407 60.9593 46.9593 59.6754 45.6754C58.6749 44.6749 58.4268 43.1463 59.0596 41.8807L59.3167 41.3666C59.7355 40.529 60.5915 40 61.5279 40C62.8932 40 64 38.8932 64 37.5279V34.4721C64 33.1068 62.8932 32 61.5279 32C60.5915 32 59.7355 31.471 59.3167 30.6334L59.0596 30.1193C58.4268 28.8537 58.6749 27.3251 59.6754 26.3246C60.9593 25.0407 60.9593 22.9593 59.6754 21.6754L58.3246 20.3246C57.0407 19.0407 54.9593 19.0407 53.6754 20.3246C52.6749 21.3251 51.1463 21.5732 49.8807 20.9404L49.3666 20.6833C48.529 20.2645 48 19.4085 48 18.4721C48 17.1068 46.8932 16 45.5279 16H42.4721C41.1068 16 40 17.1068 40 18.4721C40 19.4085 39.471 20.2645 38.6334 20.6833L38.1193 20.9404C36.8537 21.5732 35.3251 21.3251 34.3246 20.3246C33.0407 19.0407 30.9593 19.0407 29.6754 20.3246L28.3246 21.6754C27.0407 22.9593 27.0407 25.0407 28.3246 26.3246C29.3251 27.3251 29.5732 28.8537 28.9404 30.1193L28.6833 30.6334C28.2645 31.471 27.4085 32 26.4721 32C25.1068 32 24 33.1068 24 34.4721V37.5279C24 38.8932 25.1068 40 26.4721 40C27.4085 40 28.2645 40.529 28.6833 41.3666L28.9404 41.8807Z" fill="white"/>
<path d="M44 43.9999C48.4183 43.9999 52 40.4182 52 35.9999C52 31.5817 48.4183 27.9999 44 27.9999C39.5817 27.9999 36 31.5817 36 35.9999C36 40.4182 39.5817 43.9999 44 43.9999Z" fill="#EBF7FE"/>
<path d="M112 40H93.292C91.872 44.042 88.366 47.172 84.11 47.848C78.972 48.664 74.33 46.098 72 42H72.002H76C79.314 42 82 39.314 82 36C82 32.686 79.314 30 76 30H72.002L72 29.998C74.038 26.412 77.848 24 82.21 24C87.342 24 91.696 27.342 93.316 32H112" fill="white"/>
<path d="M60 72.0001C56.692 72.0001 54 74.6921 54 78.0001C54 81.3081 56.692 84.0001 60 84.0001C63.306 84.0001 65.998 81.3081 65.998 78.0001C65.998 74.6901 63.306 72.0001 60 72.0001ZM60 79.9981C58.896 79.9981 58 79.1021 58 77.9981C58 76.8941 58.896 75.9981 60 75.9981C61.102 75.9981 61.998 76.8941 61.998 77.9981C61.998 79.1021 61.102 79.9981 60 79.9981Z" fill="#272727"/>
</svg>
