<svg width="120" height="121" viewBox="0 0 120 121" fill="none" xmlns="http://www.w3.org/2000/svg">
<path d="M26.0157 56.7588L16.5651 29.5335C16.1653 27.939 15.178 26.5544 13.8008 25.6569C12.4236 24.7594 10.7582 24.4152 9.13811 24.6934C8.30731 24.8705 7.52113 25.2145 6.82725 25.7046C6.13337 26.1946 5.54624 26.8205 5.10147 27.5442C4.65669 28.2679 4.36354 29.0745 4.23978 29.9149C4.11603 30.7553 4.16424 31.6121 4.38151 32.4333L14.1033 62.4542L26.0157 56.7588Z" fill="#FFAC96"/>
<path d="M93.9854 56.7588L103.436 29.5335C103.836 27.939 104.823 26.5544 106.2 25.6569C107.577 24.7594 109.243 24.4152 110.863 24.6934C111.694 24.8705 112.48 25.2145 113.174 25.7046C113.868 26.1946 114.455 26.8205 114.9 27.5442C115.344 28.2679 115.638 29.0745 115.761 29.9149C115.885 30.7553 115.837 31.6121 115.62 32.4333L105.898 62.4542L93.9854 56.7588Z" fill="#FFAC96"/>
<path d="M45.4924 68.0495L27.0501 57.2386C25.7739 56.5016 24.2782 56.2395 22.8275 56.4987C21.3767 56.7579 20.0644 57.5218 19.1224 58.6552L12.3922 37.8784C11.9925 36.2839 11.0052 34.8993 9.62798 34.0018C8.25078 33.1043 6.58538 32.7602 4.96526 33.0384C4.13446 33.2155 3.34828 33.5595 2.6544 34.0496C1.96051 34.5396 1.37339 35.1655 0.928613 35.8892C0.48384 36.6129 0.190687 37.4194 0.0669306 38.2599C-0.0568262 39.1003 -0.00860883 39.9571 0.20866 40.7783L9.28376 74.6378C9.70004 76.2214 10.5789 77.645 11.8081 78.7268L25.911 91.2651C26.7909 92.0485 27.4949 93.0095 27.9768 94.0846C28.4586 95.1597 28.7073 96.3247 28.7066 97.5029V104.179H53.7413V82.4486C53.7415 79.5376 52.9803 76.6771 51.5333 74.1512C50.0862 71.6253 48.0037 69.5217 45.4924 68.0495Z" fill="#FFBCAB"/>
<path d="M115.035 33.0384C113.415 32.7602 111.749 33.1043 110.372 34.0018C108.995 34.8993 108.008 36.2839 107.608 37.8784L100.869 58.6552C99.9274 57.5218 98.615 56.7579 97.1643 56.4987C95.7135 56.2395 94.2178 56.5016 92.9417 57.2386L74.4994 68.0495C71.9896 69.5228 69.9088 71.6268 68.4632 74.1526C67.0177 76.6785 66.2577 79.5384 66.2588 82.4486V104.179H91.2935V97.5029C91.2928 96.3247 91.5415 95.1597 92.0233 94.0846C92.5052 93.0095 93.2092 92.0485 94.0891 91.2651L108.192 78.7268C109.421 77.645 110.3 76.2214 110.716 74.6378L119.791 40.7783C120.009 39.9571 120.057 39.1003 119.933 38.2599C119.809 37.4194 119.516 36.6129 119.071 35.8892C118.627 35.1655 118.04 34.5396 117.346 34.0496C116.652 33.5595 115.866 33.2155 115.035 33.0384Z" fill="#FFBCAB"/>
<path d="M66.1729 104.179C65.0683 104.179 64.1729 105.074 64.1729 106.179V118.869C64.1729 119.973 65.0683 120.869 66.1729 120.869H91.3801C92.4846 120.869 93.3801 119.973 93.3801 118.869V106.179C93.3801 105.074 92.4846 104.179 91.3801 104.179H91.2938H66.2591H66.1729Z" fill="#EAF0FF"/>
<path d="M55.8273 106.179C55.8273 105.074 54.9319 104.179 53.8273 104.179H53.7411H28.7063H28.6201C27.5155 104.179 26.6201 105.074 26.6201 106.179V118.869C26.6201 119.973 27.5155 120.869 28.6201 120.869H53.8273C54.9319 120.869 55.8273 119.973 55.8273 118.869V106.179Z" fill="#EAF0FF"/>
<path d="M88.0391 32.329L86.5578 33.8102L60.0001 60.368L33.4424 33.8102L31.9612 32.329C30.157 30.5991 28.7163 28.5264 27.7237 26.2324C26.7311 23.9384 26.2065 21.4692 26.1807 18.9698C26.1549 16.4704 26.6284 13.991 27.5735 11.677C28.5185 9.36295 29.9161 7.26093 31.6843 5.49417C33.4524 3.72741 35.5556 2.33147 37.8703 1.38822C40.1851 0.444973 42.6649 -0.0265999 45.1643 0.00115789C47.6637 0.0289157 50.1324 0.555445 52.4256 1.54987C54.7188 2.54429 56.7904 3.98659 58.5189 5.79219L60.0001 7.27341L61.4814 5.79219C63.2098 3.98659 65.2814 2.54429 67.5747 1.54987C69.8679 0.555445 72.3366 0.0289157 74.836 0.00115789C77.3354 -0.0265999 79.8152 0.444973 82.13 1.38822C84.4447 2.33147 86.5478 3.72741 88.316 5.49417C90.0841 7.26093 91.4817 9.36295 92.4268 11.677C93.3719 13.991 93.8454 16.4704 93.8196 18.9698C93.7938 21.4692 93.2692 23.9384 92.2766 26.2324C91.284 28.5264 89.8433 30.5991 88.0391 32.329Z" fill="#D80027" fill-opacity="0.8"/>
<path d="M88.0382 5.79202C86.0534 3.78606 83.6374 2.25891 80.9739 1.32662C78.3104 0.394317 75.4695 0.0813982 72.6669 0.411638C76.1805 0.801039 79.5127 2.17511 82.2794 4.37555C85.0462 6.57599 87.1351 9.51329 88.3055 12.8491C89.4758 16.1848 89.68 19.7834 88.8946 23.2301C88.1091 26.6769 86.3659 29.8316 83.8658 32.331L82.3846 33.8122L57.9131 58.2816L59.9993 60.3678L86.557 33.8101L88.0382 32.3289C91.5544 28.8083 93.5294 24.0361 93.5294 19.0604C93.5294 14.0848 91.5544 9.31255 88.0382 5.79202Z" fill="#BD0022" fill-opacity="0.8"/>
<path d="M64.1732 39.5057V31.1608H72.5182V22.8159H64.1732V14.4709H55.8283V22.8159H47.4834V31.1608H55.8283V39.5057H64.1732Z" fill="white"/>
<path d="M99.208 63.9146L85.2637 71.6337C84.8651 71.8644 84.5696 72.2386 84.4374 72.6797C84.3053 73.1209 84.3463 73.5959 84.5523 74.0078C84.6624 74.2281 84.8164 74.4235 85.0048 74.582C85.1933 74.7406 85.4122 74.8588 85.6481 74.9296C85.884 75.0003 86.1319 75.0221 86.3765 74.9934C86.621 74.9648 86.8572 74.8863 87.0704 74.763L99.208 68.0871C100.475 67.3524 101.445 66.1966 101.948 64.8208C102.45 63.4451 102.455 61.9365 101.96 60.5579C101.477 61.9719 100.5 63.1639 99.208 63.9146Z" fill="#FFAC96"/>
<path d="M20.7916 63.9146L34.736 71.6337C35.1345 71.8644 35.43 72.2386 35.5622 72.6797C35.6944 73.1209 35.6534 73.5959 35.4474 74.0078C35.3373 74.2281 35.1833 74.4235 34.9948 74.582C34.8064 74.7406 34.5875 74.8588 34.3516 74.9296C34.1157 75.0003 33.8678 75.0221 33.6232 74.9934C33.3786 74.9648 33.1425 74.8863 32.9293 74.763L20.7916 68.0871C19.5244 67.3524 18.555 66.1966 18.0522 64.8208C17.5494 63.4451 17.545 61.9365 18.0399 60.5579C18.5226 61.9719 19.4998 63.1639 20.7916 63.9146Z" fill="#FFAC96"/>
</svg>
