<svg width="131" height="120" viewBox="0 0 131 120" fill="none" xmlns="http://www.w3.org/2000/svg">
<path d="M72.7424 4.98235C72.7424 9.07549 69.4238 12.3941 65.3297 12.3941C61.2356 12.3941 57.917 9.07549 57.917 4.98235C57.917 0.888209 72.7424 0.888209 72.7424 4.98235Z" fill="#EAF0FF"/>
<path d="M65.3313 11.3754C35.828 11.3754 11.9102 35.2932 11.9102 64.7965H118.753C118.753 35.2932 94.8346 11.3754 65.3313 11.3754Z" fill="#B8C7F2"/>
<path d="M65.3313 11.3754C62.8381 11.3754 60.3859 11.5498 57.9834 11.8808C84.0086 15.4615 104.056 37.7864 104.056 64.7965H118.752C118.752 35.2932 94.8346 11.3754 65.3313 11.3754Z" fill="#A9B9E8"/>
<path d="M125.086 72.898H5.57562C3.55198 72.898 1.91113 71.2572 1.91113 69.2335V66.9009C1.91113 64.8772 3.55198 63.2364 5.57562 63.2364H125.086C127.11 63.2364 128.751 64.8772 128.751 66.9009V69.2335C128.751 71.2572 127.11 72.898 125.086 72.898Z" fill="#8EA8F5"/>
<path d="M32.8556 113.689L33.7319 109.942C34.969 104.658 39.1468 100.461 44.3774 99.2501C49.904 97.9702 56.2681 98.7707 60.5745 99.4854C65.4323 100.29 70.5352 100.015 75.3322 98.6889L82.37 96.744C86.8111 95.5159 90.9003 93.4484 94.5209 90.5973L106.66 79.8461C109.822 77.5144 107.481 70.3061 101.698 73.9028L89.7499 81.8119L77.93 85.2302L69.5414 85.4126L75.1966 82.418C77.3438 81.3135 78.263 78.7147 77.289 76.5026C76.9511 75.736 76.4028 75.0791 75.702 74.6036C74.6513 73.8898 73.3285 73.6306 72.0724 73.8928L55.4955 77.349L42.8392 73.9357C41.0309 73.4472 39.2505 72.8481 37.4133 72.8979C32.7031 73.0265 28.0238 75.2625 24.5417 78.5701L24.5028 78.607L8.97363 97.4648L32.8556 113.689Z" fill="#FFE7CF"/>
<path d="M106.542 73.5131L93.1089 83.2764C89.4873 86.1264 81.0458 91.5165 49.9266 88.8369C45.5773 88.4631 39.2551 87.3227 33.7285 88.6027C29.5686 89.5656 21.5448 99.7636 18.4365 103.895L32.8542 113.689L33.7315 109.942C34.9676 104.658 39.1465 100.461 44.376 99.2502C49.9027 97.9702 56.2677 98.7707 60.5741 99.4855C65.4309 100.29 70.5339 100.015 75.3318 98.689L82.3687 96.7441C86.8107 95.5159 90.8989 93.4484 94.5205 90.5974L106.659 79.8462C108.671 78.3628 108.455 74.9057 106.542 73.5131Z" fill="#F4D5BA"/>
<path d="M37.4418 106.67L13.0215 90.08C11.4823 89.0343 9.38589 89.435 8.34118 90.9762L4.77338 96.2386C3.72966 97.7778 4.1304 99.8702 5.66857 100.915L30.0889 117.505C31.628 118.551 33.7244 118.15 34.7691 116.609L38.3369 111.346C39.3807 109.807 38.9799 107.715 37.4418 106.67Z" fill="#EAF0FF"/>
</svg>
