<svg width="125" height="110" viewBox="0 0 125 110" fill="none" xmlns="http://www.w3.org/2000/svg">
<path d="M6.40723 25.8116V108.998C6.40723 109.551 6.85622 110 7.4089 110H117.049C117.602 110 118.051 109.551 118.051 108.998V25.8116H6.40723Z" fill="#5B83FB"/>
<path d="M48.877 72.5772V110H75.5817V72.5772C75.5817 71.194 74.4607 70.072 73.0775 70.072H51.3821C49.998 70.072 48.877 71.194 48.877 72.5772Z" fill="#6A7193"/>
<path d="M52.6958 76.399C52.6958 75.0158 53.8168 73.8948 55.2 73.8948H75.5817V72.5772C75.5817 71.194 74.4607 70.072 73.0775 70.072H51.3821C49.998 70.072 48.877 71.194 48.877 72.5772V110H52.6958V76.399Z" fill="#575B7A"/>
<path d="M0.15625 43.116V53.3391C0.15625 53.8918 0.604263 54.3408 1.15792 54.3408H123.301C123.855 54.3408 124.303 53.8918 124.303 53.3391V43.116C124.303 42.5623 123.855 42.1143 123.301 42.1143H1.15792C0.604263 42.1143 0.15625 42.5623 0.15625 43.116Z" fill="#C8E7F7"/>
<path d="M123.301 42.1143H117.418C117.972 42.1143 118.42 42.5623 118.42 43.116V53.3391C118.42 53.8918 117.972 54.3408 117.418 54.3408H123.301C123.854 54.3408 124.303 53.8918 124.303 53.3391V43.116C124.303 42.5623 123.854 42.1143 123.301 42.1143Z" fill="#8CBCD6"/>
<path d="M83.7646 76.2073V96.7025C83.7646 97.8734 84.7135 98.8232 85.8854 98.8232H109.128C110.3 98.8232 111.249 97.8734 111.249 96.7025V76.2073C111.249 75.0364 110.3 74.0876 109.128 74.0876H85.8854C84.7135 74.0876 83.7646 75.0364 83.7646 76.2073Z" fill="#C8E7F7"/>
<path d="M13.208 76.2073V96.7025C13.208 97.8734 14.1569 98.8232 15.3287 98.8232H38.5716C39.7435 98.8232 40.6924 97.8734 40.6924 96.7025V76.2073C40.6924 75.0364 39.7435 74.0876 38.5716 74.0876H15.3287C14.1569 74.0876 13.208 75.0364 13.208 76.2073Z" fill="#C8E7F7"/>
<path d="M124.458 20.2937V15.7001H0V20.2937C3.04806 20.2937 5.518 22.7646 5.518 25.8117H118.94C118.94 22.7636 121.41 20.2937 124.458 20.2937Z" fill="#C8E7F7"/>
<path d="M42.3994 15.7001H89.6961V25.8117H42.3994V15.7001Z" fill="#8CBCD6"/>
<path d="M118.576 15.7001V20.2937C115.529 20.2937 113.058 22.7636 113.058 25.8117H118.94C118.94 22.7636 121.41 20.2937 124.458 20.2937V15.7001H118.576Z" fill="#8CBCD6"/>
<path d="M38.5811 7.26016V27.7524C38.5811 31.763 41.8316 35.0125 45.8412 35.0125H78.6166C82.6263 35.0125 85.8768 31.763 85.8768 27.7524V7.26016C85.8768 3.25054 82.6263 0 78.6166 0H45.8412C41.8316 0 38.5811 3.25054 38.5811 7.26016Z" fill="#69D87A"/>
<path d="M54.9666 88.158H53.4641C52.4262 88.158 51.5859 88.9992 51.5859 90.0361C51.5859 91.073 52.4262 91.9142 53.4641 91.9142H54.9666C56.0044 91.9142 56.8447 91.073 56.8447 90.0361C56.8447 88.9992 56.0044 88.158 54.9666 88.158Z" fill="#272727"/>
<path d="M48.7756 9.37401H51.0773L53.4387 20.6624C53.8964 22.8496 55.8509 24.4382 58.0861 24.4382H69.2385C71.2017 24.4382 72.9869 23.2037 73.6804 21.3677L77.3634 11.618C77.7135 10.6897 77.5864 9.64888 77.0229 8.83404C76.4595 8.01823 75.5302 7.53109 74.5393 7.53109H58.7659C57.729 7.53109 56.8878 8.37136 56.8878 9.40922C56.8878 10.4461 57.729 11.2874 58.7659 11.2874H73.4731L70.1668 20.0402C70.022 20.4237 69.6493 20.6819 69.2394 20.6819H58.0861C57.6195 20.6819 57.2116 20.3494 57.1157 19.8935L54.7445 8.56113C54.3875 6.85515 52.8645 5.61774 51.1213 5.61774H48.7766C47.7387 5.61774 46.8984 6.45801 46.8984 7.49587C46.8984 8.53276 47.7387 9.37401 48.7756 9.37401Z" fill="white"/>
<path d="M58.4102 26.0142H57.9094C56.8715 26.0142 56.0312 26.8545 56.0312 27.8924C56.0312 28.9292 56.8715 29.7705 57.9094 29.7705H58.4102C59.4481 29.7705 60.2884 28.9292 60.2884 27.8924C60.2884 26.8545 59.4481 26.0142 58.4102 26.0142Z" fill="white"/>
<path d="M66.5489 26.0142H66.0481C65.0102 26.0142 64.1699 26.8545 64.1699 27.8924C64.1699 28.9292 65.0102 29.7705 66.0481 29.7705H66.5489C67.5868 29.7705 68.427 28.9292 68.427 27.8924C68.427 26.8545 67.5868 26.0142 66.5489 26.0142Z" fill="white"/>
</svg>
