<svg width="104" height="125" viewBox="0 0 104 125" fill="none" xmlns="http://www.w3.org/2000/svg">
<path d="M68.1642 32.3276H35.8366C34.6471 32.3276 33.6816 31.3622 33.6816 30.1727V18.3188C33.681 8.21766 41.8987 0 52.0004 0C62.1022 0 70.3192 8.21766 70.3192 18.3188V30.172C70.3192 31.3622 69.3538 32.3276 68.1642 32.3276ZM37.9916 28.0171H66.0086V18.3188C66.0086 10.5949 59.7243 4.30993 51.9998 4.30993C44.2753 4.30993 37.9916 10.5949 37.9916 18.3188V28.0171Z" fill="#272727"/>
<path d="M99.4129 40.9482H4.58496L11.0505 30.1727H92.9474L99.4129 40.9482Z" fill="#A8BBE9"/>
<path d="M57.7915 47.0658L75.4849 51.2034C78.7115 51.9579 81.9388 49.9539 82.6933 46.7274L87.3217 26.9356C88.0762 23.709 86.0722 20.4817 82.8457 19.7272L65.1522 15.5896C61.9256 14.835 58.6983 16.839 57.9438 20.0656L53.3155 39.8574C52.5609 43.0839 54.5649 46.3112 57.7915 47.0658Z" fill="#79FF8E"/>
<path d="M23.5157 50.8805L47.6459 48.0279C50.9367 47.6389 53.2891 44.6557 52.9001 41.3649L49.7431 14.6594C49.3541 11.3686 46.3709 9.01618 43.0801 9.40521L18.9499 12.2578C15.659 12.6468 13.3066 15.6299 13.6957 18.9208L16.8527 45.6263C17.2417 48.9171 20.2248 51.2695 23.5157 50.8805Z" fill="#BCCDFF"/>
<path d="M43.7136 66.3314L66.7687 60.7876C69.9907 60.0128 71.9745 56.7729 71.1997 53.551L65.2185 28.6768C64.4437 25.4549 61.2038 23.4711 57.9819 24.2458L34.9268 29.7897C31.7049 30.5644 29.721 33.8044 30.4958 37.0263L36.477 61.9004C37.2518 65.1223 40.4917 67.1062 43.7136 66.3314Z" fill="#FFBC53"/>
<path d="M103.724 125H0.275391L4.58532 40.9481H99.4133L103.724 125Z" fill="#E5ECFF"/>
<path d="M68.1631 58.1896C70.5438 58.1896 72.4737 56.2597 72.4737 53.879C72.4737 51.4984 70.5438 49.5685 68.1631 49.5685C65.7824 49.5685 63.8525 51.4984 63.8525 53.879C63.8525 56.2597 65.7824 58.1896 68.1631 58.1896Z" fill="#ACBFEB"/>
<path d="M68.1628 60.3446C64.5973 60.3446 61.6973 57.4446 61.6973 53.8791C61.6973 50.3136 64.5973 47.4136 68.1628 47.4136C71.7283 47.4136 74.6283 50.3136 74.6283 53.8791C74.6283 57.4446 71.7283 60.3446 68.1628 60.3446ZM68.1628 51.7241C66.9745 51.7241 66.0078 52.6908 66.0078 53.8791C66.0078 55.0674 66.9745 56.0341 68.1628 56.0341C69.3511 56.0341 70.3178 55.0674 70.3178 53.8791C70.3178 52.6908 69.3511 51.7241 68.1628 51.7241Z" fill="#272727"/>
<path d="M35.835 58.1896C38.2156 58.1896 40.1455 56.2597 40.1455 53.879C40.1455 51.4984 38.2156 49.5685 35.835 49.5685C33.4543 49.5685 31.5244 51.4984 31.5244 53.879C31.5244 56.2597 33.4543 58.1896 35.835 58.1896Z" fill="#ACBFEB"/>
<path d="M35.8356 60.3446C32.2701 60.3446 29.3701 57.4446 29.3701 53.8791C29.3701 50.3136 32.2701 47.4136 35.8356 47.4136C39.4012 47.4136 42.3012 50.3136 42.3012 53.8791C42.3012 57.4446 39.4012 60.3446 35.8356 60.3446ZM35.8356 51.7241C34.6474 51.7241 33.6807 52.6908 33.6807 53.8791C33.6807 55.0674 34.6474 56.0341 35.8356 56.0341C37.0239 56.0341 37.9906 55.0674 37.9906 53.8791C37.9906 52.6908 37.0239 51.7241 35.8356 51.7241Z" fill="#272727"/>
<path d="M52.0004 86.2068C41.8993 86.2068 33.6816 77.9891 33.6816 67.888V56.0347C33.6816 54.8452 34.6471 53.8798 35.8366 53.8798C37.0262 53.8798 37.9916 54.8452 37.9916 56.0347V67.888C37.9916 75.6119 44.2759 81.8968 52.0004 81.8968C59.725 81.8968 66.0093 75.6125 66.0093 67.888V56.8656C65.9013 56.6106 65.8432 56.329 65.8432 56.0347C65.8432 54.8452 66.8086 53.8798 67.9982 53.8798H68.1642C69.3538 53.8798 70.3192 54.8452 70.3192 56.0347V67.888C70.3192 77.9891 62.1015 86.2068 52.0004 86.2068Z" fill="#272727"/>
</svg>
